<svg xmlns="http://www.w3.org/2000/svg" viewBox="0 0 620 400" width="620" height="400" role="img" aria-label="Projecting vector a onto direction b"><title>Projecting vector a onto direction b</title><style>
  :root{--bg:#ffffff;--grid:#e6eaef;--axis:#9aa5b1;--ink:#1f2937;--muted:#6b7280;
        --a:#0366d6;--b:#57606a;--par:#1a7f37;--perp:#cf222e;--fill:#0366d612}
  @media (prefers-color-scheme: dark){
    :root{--bg:#0d1117;--grid:#1c2330;--axis:#54606f;--ink:#e6edf3;--muted:#9198a1;
          --a:#58a6ff;--b:#8b949e;--par:#3fb950;--perp:#ff7b72;--fill:#58a6ff1a}
  }
  .bg{fill:var(--bg)} .grid{stroke:var(--grid);stroke-width:1}
  .axis{stroke:var(--axis);stroke-width:1.5}
  .lbl{font:500 15px -apple-system,'Helvetica Neue',Arial,sans-serif;fill:var(--ink)}
  .sm{font:400 13px -apple-system,'Helvetica Neue',Arial,sans-serif;fill:var(--muted)}
  .tick{font:400 11px -apple-system,'Helvetica Neue',Arial,sans-serif;fill:var(--muted)}
  .va{stroke:var(--a);stroke-width:2.6;fill:none}
  .vb{stroke:var(--b);stroke-width:2.6;fill:none}
  .vpar{stroke:var(--par);stroke-width:3;fill:none}
  .vperp{stroke:var(--perp);stroke-width:2.6;fill:none}
  .dash{stroke:var(--perp);stroke-width:1.4;stroke-dasharray:5 4;fill:none;opacity:.75}
  .ray{stroke:var(--b);stroke-width:1.2;stroke-dasharray:4 4;opacity:.55;fill:none}
  .ta{fill:var(--a)} .tb{fill:var(--b)} .tpar{fill:var(--par)} .tperp{fill:var(--perp)}
</style><defs><marker id="ara" viewBox="0 0 10 8" refX="9" refY="4" markerWidth="7.5" markerHeight="6" orient="auto"><path d="M0 0 L10 4 L0 8 z" fill="var(--a)"/></marker><marker id="arb" viewBox="0 0 10 8" refX="9" refY="4" markerWidth="7.5" markerHeight="6" orient="auto"><path d="M0 0 L10 4 L0 8 z" fill="var(--b)"/></marker><marker id="arp" viewBox="0 0 10 8" refX="9" refY="4" markerWidth="7.5" markerHeight="6" orient="auto"><path d="M0 0 L10 4 L0 8 z" fill="var(--par)"/></marker><marker id="arq" viewBox="0 0 10 8" refX="9" refY="4" markerWidth="7.5" markerHeight="6" orient="auto"><path d="M0 0 L10 4 L0 8 z" fill="var(--perp)"/></marker></defs><rect class="bg" width="620" height="400"/><line class="grid" x1="72" y1="8" x2="72" y2="392"/><line class="grid" x1="146" y1="8" x2="146" y2="392"/><line class="grid" x1="220" y1="8" x2="220" y2="392"/><line class="grid" x1="294" y1="8" x2="294" y2="392"/><line class="grid" x1="368" y1="8" x2="368" y2="392"/><line class="grid" x1="442" y1="8" x2="442" y2="392"/><line class="grid" x1="8" y1="342" x2="612" y2="342"/><line class="grid" x1="8" y1="268" x2="612" y2="268"/><line class="grid" x1="8" y1="194" x2="612" y2="194"/><line class="grid" x1="8" y1="120" x2="612" y2="120"/><line class="grid" x1="8" y1="46" x2="612" y2="46"/><line class="axis" x1="8" y1="342" x2="612" y2="342"/><line class="axis" x1="72" y1="8" x2="72" y2="392"/><line class="ray" x1="72" y1="342" x2="450.88" y2="152.56"/><polygon points="72.0,342.0 220.0,268.0 146.0,120.0" fill="var(--fill)" stroke="none"/><line class="vb" x1="72" y1="342" x2="368" y2="194" marker-end="url(#arb)"/><line class="va" x1="72" y1="342" x2="146" y2="120" marker-end="url(#ara)"/><line class="vpar" x1="72" y1="342" x2="220.0" y2="268.0" marker-end="url(#arp)"/><line class="vperp" x1="220.0" y1="268.0" x2="146" y2="120" marker-end="url(#arq)"/><polygon points="220.0,268.0 238.5,258.7 229.3,240.2 210.7,249.5" fill="none" stroke="var(--muted)" stroke-width="1.4"/><path d="M86.5 298.5 A45.9 45.9 0 0 1 113.0 321.5" fill="none" stroke="var(--muted)" stroke-width="1.4"/><circle cx="146" cy="120" r="3.4" class="ta"/><circle cx="368" cy="194" r="3.4" class="tb"/><circle cx="220.0" cy="268.0" r="3.4" class="tpar"/><text x="138" y="108" class="lbl" text-anchor="end">a = (1, 3)</text><text x="378" y="200" class="lbl" text-anchor="start">b = (4, 2)</text><text x="228.0" y="292.0" class="lbl" text-anchor="start">a∥ = (2, 1)</text><text x="197.0" y="192.0" class="lbl" text-anchor="start">a⊥ = (-1, 2)</text><text x="104.4953883500593" y="289.0960243675426" class="sm" text-anchor="start">θ = 45°</text><text x="62" y="360" class="sm" text-anchor="end">O</text><text x="146" y="358" class="tick" text-anchor="middle">1</text><text x="220" y="358" class="tick" text-anchor="middle">2</text><text x="294" y="358" class="tick" text-anchor="middle">3</text><text x="368" y="358" class="tick" text-anchor="middle">4</text><text x="442" y="358" class="tick" text-anchor="middle">5</text><text x="64" y="272" class="tick" text-anchor="end">1</text><text x="64" y="198" class="tick" text-anchor="end">2</text><text x="64" y="124" class="tick" text-anchor="end">3</text><text x="64" y="50" class="tick" text-anchor="end">4</text><text x="606" y="26" class="sm" text-anchor="end">a∥ = (a·b / b·b) · b = ½ · (4, 2)</text><text x="606" y="46" class="sm" text-anchor="end">a⊥ = a − a∥,  a⊥ · b = 0</text></svg>